/* XPM */
static char *result[] = {
/* columns rows colors chars-per-pixel */
"32 32 58 1 ",
"  c black",
". c #4EEBFF",
"X c #53ECFF",
"o c #54ECFF",
"O c #5AEBFF",
"+ c #5AECFF",
"@ c #5FEDFF",
"# c #64EDFF",
"$ c #65EEFF",
"% c #6AEEFF",
"& c #6BEEFF",
"* c #71EEFF",
"= c #71EFFF",
"- c #72EFFF",
"; c #78EFFF",
": c #77F0FF",
"> c #7DF0FF",
", c #7CF1FF",
"< c #82F1FF",
"1 c #87F2FF",
"2 c #88F2FF",
"3 c #89F2FF",
"4 c #8EF2FF",
"5 c #94F3FF",
"6 c #9AF3FF",
"7 c #9AF4FF",
"8 c #A0F4FF",
"9 c #A1F5FF",
"0 c #A5F5FF",
"q c #AAF5FF",
"w c #ABF5FF",
"e c #ABF6FF",
"r c #B1F5FF",
"t c #B1F6FF",
"y c #B7F7FF",
"u c #BDF7FF",
"i c #BDF8FF",
"p c #C3F8FF",
"a c #C8F9FF",
"s c #CEF8FF",
"d c #CEF9FF",
"f c #D3FAFF",
"g c #D5FAFF",
"h c #DAFBFF",
"j c #DFFBFF",
"k c #E0FBFF",
"l c #E5FCFF",
"z c #E6FCFF",
"x c #EBFDFF",
"c c #F1FDFF",
"v c #F1FEFF",
"b c #F6FDFF",
"n c #F6FEFF",
"m c #F7FEFF",
"M c #F8FEFF",
"N c #FDFFFF",
"B c #FEFFFF",
"V c None",
/* pixels */
"VVVVVVVVVVVVVVNNBNVVVVVVVVVVVVVV",
"VVVVVVVVVVMmmmmmnmmmbVVVVVVVVVVV",
"VVVVVVVVvcccVVVVVVVVVVVVVVVVVVVV",
"VVVVVVVxxVVVVVVVVVVVVVVVVVVVVVVV",
"VVVVVVzlVVVVVVVVVVVVVVVVVVVVVVVV",
"VVVVVkjVVVVVVVVVVVVVVVVVVVVVVVVV",
"VVVVhhVVVVVVVVVVVVVVVVVVVVVVVVVV",
"VVVgfVVVVVVVVVVVVVVVVVVVVVVVVVVV",
"VVsdVVVVVVVVVVVV VVVVVVVVVVVddVV",
"VVaVVVVVVVVV VV  VV  VVVVVVVVaVV",
"VVpVVVVVVVVV        VVVVVVVVVppV",
"ViuVVVVVVVVV        VVVVVVVVVVuV",
"VyVVVVVVVVVV        VVVVVVVVVVyV",
"VtVVVVVVVVVVV      VVVVVVVVVVVtr",
"VwVVVVVVVVVVVV    VVVVVVVVVVVVqe",
"V0VVVVVVVVVVV      VVVVVVVVVVV00",
"V8VVVVVVVVVVV   VV  VVVVVVVVVV89",
"V7VVVVVVVVVV     V  VVVVVVVVVV67",
"V5VVVVVVVVVV    VV  VVVVVVVVVV5V",
"V4VVVVVVVVVVV       VVVVVVVVVV4V",
"V31VVVVVVVVVVV     VVVVVVVVVVV2V",
"VV<VVVVVVVVVVV  VVVVVVVVVVVVV<<V",
"VV>,VVVVVVVVVV VVVVVVVVVVVVVV>VV",
"VVV:VVVVVVVVVVVVVVVVVVVVVVVV:;VV",
"VVV==VVVVVVVVVVVVVVVVVVVVVV-*VVV",
"VVVV&%VVVVVVVVVVVVVVVVVVVVV&VVVV",
"VVVVV$$VVVVVVVVVVVVVVVVVV#$VVVVV",
"VVVVVV@@VVVVVVVVVVVVVVVV@@VVVVVV",
"VVVVVVV+++VVVVVVVVVVVVV+OVVVVVVV",
"VVVVVVVVVoooVVVVVVVVXooXVVVVVVVV",
"VVVVVVVVVVV..........VVVVVVVVVVV",
"VVVVVVVVVVVVVVVVVVVVVVVVVVVVVVVV"
};
