/* XPM */
static char *c96399167fb8430693c46d20afe0dd0evlmLWTEH4wJcJPZp[] = {
/* columns rows colors chars-per-pixel */
"128 128 29 1 ",
"  c None",
". c black",
"X c #4EEBFF",
"o c #53ECFF",
"O c #5CECFF",
"+ c #64EEFF",
"@ c #6BEEFF",
"# c #72EFFF",
"$ c #7AEFFF",
"% c #76F0FF",
"& c #7CF0FF",
"* c #83F1FF",
"= c #8CF2FF",
"- c #93F3FF",
"; c #9BF4FF",
": c #A4F5FF",
"> c #ACF5FF",
", c #B3F6FF",
"< c #BBF7FF",
"1 c #BDF8FF",
"2 c #C1F7FF",
"3 c #C4F8FF",
"4 c #CCF9FF",
"5 c #D3FAFF",
"6 c #DCFBFF",
"7 c #E4FCFF",
"8 c #EBFDFF",
"9 c #F5FEFF",
"0 c #FBFFFF",
/* pixels */
"                                                       00000000000000000                                                        ",
"                                                      0000000000000000000                                                       ",
"                                                     0000000000000000000000                                                     ",
"                                                 000000000000000000000000000000                                                 ",
"                                            0990900900900900900000000909099000900                                               ",
"                                         00999900990090909900099009090099090999990                                              ",
"                                        999009099999909990909990999999000999090999                                              ",
"                                     9999999999909099990909            9090999099                                               ",
"                                   998989999999999                                                                              ",
"                                 99899988989989                                                                                 ",
"                                8989898998988                                                                                   ",
"                              8889888998899                                                                                     ",
"                            888888898989                                                                                        ",
"                           88888888888                                                                                          ",
"                          7888888888                                                                                            ",
"                         8887888888                                                                                             ",
"                        788788878                                                                                               ",
"                       877777787                                                                                                ",
"                      777778777                                                                                                 ",
"                    777777777                                                                                                   ",
"                    77767677                                                                                                    ",
"                   66777777                                                                                                     ",
"                  77776666                                                                                                      ",
"                 66666677                                                                                                       ",
"                66666666                                                                                                        ",
"               66666666                                                                                                         ",
"               6656566                                                                                                          ",
"              6556656                                                                                                           ",
"             6556556                                                                                                            ",
"            55555555                                                                                                            ",
"            5555555                                                                                                             ",
"           5555555                                                                                                              ",
"           545455                                                                                                544545         ",
"          454554                                                ..                                               445444         ",
"         4444444                                               ....                                              5444444        ",
"         4444444                                              .....                                               444444        ",
"        3444444                                  .            ......                                              444344        ",
"        443443                                 ....          .......           ....                                444344       ",
"        334343                                 .....         .......         ......                                334343       ",
"       343333                                  ......       .........       .......                                 333333      ",
"       333333                                  .......     ............    .......                                  3333333     ",
"       33333                                    .................................                                   3332333     ",
"      333333                                    .................................                                    313331     ",
"     3133113                                    ................................                                     2333331    ",
"     131133                                      ...............................                                      31222<    ",
"     1111<<                                      ...............................                                      11<<21    ",
"    1111<<1                                      ...............................                                       2<<1<    ",
"    <<<<<<                                       ...............................                                       <<<<<    ",
"    <<<,<<                                       ...............................                                       <<<<<,   ",
"    <<<<<                                         ..............................                                        <,<<<   ",
"    <,,,,                                         .............................                                         ,,,,<   ",
"    ,<,,<                                          ............................                                         <<<,,   ",
"    ,,,,<                                          ...........................                                          ,,,,,,  ",
"   ,>,,,,                                           ..........................                                          ,,,,,,  ",
"   ,>,>,                                            .........................                                           >,,>,,,>",
"   >,>,>                                              ......................                                            ,>,>>>>,",
"   >>>>,                                                ..................                                              >>>>>>>>",
"   >>>>>                                                 ................                                               >>>>>>>>",
"   >>:>>                                                 ................                                                :>>>>>>",
"   >>>:>                                                ..................                                               >>:::>>",
"   >::>:                                              ......................                                             >>:>>:>",
"  >:>:::                                             .......................                                             ::>::::",
"  ::::::                                            .........................                                            :::::::",
"  ::::::                                            ..........................                                           :::::::",
"  :;::::                                           ...............   ..........                                          :::;:::",
"  :::;::                                           .............       ........                                          ::::::;",
"   :;;:;                                          ..............       .........                                         :;;;:;:",
"   ;:;;;                                         .................      ........                                         ;;:;:;;",
"   ;;;;;                                         ..................     ........                                         ;;;;;:;",
"   ;;;;;                                         ..................     ........                                         ;;;;;;;",
"   ;;;;;                                         ..................     ........                                        ;;-;;;;;",
"   --;-;                                         ..................     ........                                        ;-;;--;-",
"   ;-;--                                         .................      ........                                        ---;-;--",
"    --;--                                        .................      ........                                        ;-----  ",
"    -----                                         ...............       ........                                        ------  ",
"    =----                                          ...............     .........                                        --=--   ",
"    ---==                                          ...............    .........                                         =-=--   ",
"    ===--                                           ...........................                                         =-=-=   ",
"    =-====                                          ..........................                                         ==-==-   ",
"    ======                                           ........................                                          =====    ",
"    =======                                           ......................                                           =====    ",
"     ==*=*=                                             ...................                                            =*===    ",
"     ===*=*                                             ..................                                            *=*=**    ",
"     =******                                            ................                                             ***=**=    ",
"      ******                                            .........                                                    ******     ",
"       *****                                            ........                                                    *******     ",
"       *&****                                           .......                                                     **&****     ",
"       **&&*&                                           .......                                                     &**&*&      ",
"        &*&*&&                                          ......                                                      *$*&&       ",
"        &&*&&&                                          .....                                                      *$*$&&       ",
"        &&&&&&&                                         .....                                                      $$$&&&       ",
"         &&&&&&&                                        ....                                                      $$&&&&        ",
"         &&%%&%&                                         ..                                                      &%&&$$$        ",
"          %&%%%%                                                                                                &%&%$$$         ",
"           %%%%%%                                                                                               #&%%&#&         ",
"           %%%%%%%                                                                                             #####%%          ",
"            %%%%%%%                                                                                            %#####           ",
"            @%@%@@@%                                                                                          #%####            ",
"             %@%%@@%                                                                                         @%#####            ",
"              %@@%@@@                                                                                       @%@@@#@             ",
"               @@@@@@@                                                                                     @@@@@@#@             ",
"                @@@@@@@                                                                                    @@@@@@               ",
"                @@@@@@@@                                                                                  @@@@@@@               ",
"                 @@@@+++@                                                                               +@+@@@@@                ",
"                  @+@++@++                                                                             @+@+@@+@                 ",
"                   @+@+++++                                                                           +++++++@                  ",
"                    ++++++++                                                                         ++++++++                   ",
"                     ++++++++                                                                       O++O++++                    ",
"                      ++++O++O+                                                                    +O++++++                     ",
"                       +OO++O++O                                                                 +O++OO+O+                      ",
"                        +O+OOOOOO                                                               +OOOO+OOO                       ",
"                         OOO++OOOO                                                             OOOO+OOO+                        ",
"                           OOOOOOOOoO                                                        OOOOOOO+OO                         ",
"                            OOOOOoOOOO                                                     OOOOoOoOOO                           ",
"                             OOOOOOOoOOO                                                  oOOOOoOOOO                            ",
"                              OoOOooOoooOo                                              ooOooOoOoOO                             ",
"                                OoOOOoooooooo                                       oooooooOoooOO                               ",
"                                  ooooOooooooooo                                 oooooooOoooooO                                 ",
"                                   ooooooooooooooo                             ooXoooooooooooo                                  ",
"                                     ooooooooooooXoooXo                   XXoXXooXoooooooooo                                    ",
"                                        ooXoXooXXXoXXXoXXXXXXXXXXXXXXXXXXXoXXoXXXXoooXooo                                       ",
"                                          XoXXXooXXXXXXXXXXXXXXXXoXXXXXXXXXXXXXXXoXXXo                                          ",
"                                            XXXXXXXXXXXXXXXXXXXXXXXXXXXXXXXXXXXXXXXXX                                           ",
"                                               XXXXXXXXXXXXXXXXXXXXXXXXXXXXXXXXoXX                                              ",
"                                                      XXXXXXXXXXXXXXXXXXXXX                                                     ",
"                                                            XXXXXXXX                                                            ",
"                                                                                                                                ",
"                                                                                                                                "
};
