/* XPM */
static char *result[] = {
/* columns rows colors chars-per-pixel */
"64 64 176 2 ",
"   c black",
".  c #4AEAFF",
"X  c #4BEAFF",
"o  c #4AEBFF",
"O  c #4DEBFF",
"+  c #4EEBFF",
"@  c #4FEBFF",
"#  c #50EBFF",
"$  c #51EBFF",
"%  c #50ECFF",
"&  c #51ECFF",
"*  c #52ECFF",
"=  c #53ECFF",
"-  c #54ECFF",
";  c #55ECFF",
":  c #56ECFF",
">  c #57ECFF",
",  c #5AEBFF",
"<  c #5BEBFF",
"1  c #58ECFF",
"2  c #59ECFF",
"3  c #5AECFF",
"4  c #5BECFF",
"5  c #5CECFF",
"6  c #5DECFF",
"7  c #5DEDFF",
"8  c #5EECFF",
"9  c #5EEDFF",
"0  c #5FEDFF",
"q  c #60EDFF",
"w  c #61EDFF",
"e  c #62EDFF",
"r  c #63EDFF",
"t  c #62EEFF",
"y  c #63EEFF",
"u  c #65EDFF",
"i  c #64EEFF",
"p  c #65EEFF",
"a  c #66EEFF",
"s  c #67EEFF",
"d  c #68EEFF",
"f  c #69EEFF",
"g  c #68EFFF",
"h  c #6AEEFF",
"j  c #6BEEFF",
"k  c #6CEEFF",
"l  c #6DEEFF",
"z  c #6CEFFF",
"x  c #6FEFFF",
"c  c #70EEFF",
"v  c #70EFFF",
"b  c #71EFFF",
"n  c #72EFFF",
"m  c #73EFFF",
"M  c #75EFFF",
"N  c #76EFFF",
"B  c #77EFFF",
"V  c #79EFFF",
"C  c #7AEFFF",
"Z  c #7BEFFF",
"A  c #74F0FF",
"S  c #75F0FF",
"D  c #76F0FF",
"F  c #78F0FF",
"G  c #7AF1FF",
"H  c #7BF1FF",
"J  c #7CF0FF",
"K  c #7DF1FF",
"L  c #7EF0FF",
"P  c #81F1FF",
"I  c #83F1FF",
"U  c #84F1FF",
"Y  c #85F2FF",
"T  c #86F2FF",
"R  c #87F2FF",
"E  c #89F2FF",
"W  c #8AF2FF",
"Q  c #8CF2FF",
"!  c #8DF2FF",
"~  c #8FF2FF",
"^  c #90F2FF",
"/  c #92F2FF",
"(  c #92F3FF",
")  c #93F3FF",
"_  c #95F3FF",
"`  c #96F3FF",
"'  c #98F3FF",
"]  c #9BF3FF",
"[  c #9CF3FF",
"{  c #9FF3FF",
"}  c #98F4FF",
"|  c #99F4FF",
" . c #9CF4FF",
".. c #9EF4FF",
"X. c #9FF4FF",
"o. c #9FF5FF",
"O. c #A1F4FF",
"+. c #A2F5FF",
"@. c #A4F5FF",
"#. c #A6F5FF",
"$. c #A7F5FF",
"%. c #A7F6FF",
"&. c #A9F5FF",
"*. c #AAF5FF",
"=. c #A9F6FF",
"-. c #AAF6FF",
";. c #ACF5FF",
":. c #ADF5FF",
">. c #AFF5FF",
",. c #ACF6FF",
"<. c #AFF6FF",
"1. c #B0F6FF",
"2. c #B2F6FF",
"3. c #B3F6FF",
"4. c #B5F7FF",
"5. c #B6F7FF",
"6. c #B8F7FF",
"7. c #B9F7FF",
"8. c #BBF7FF",
"9. c #BCF7FF",
"0. c #BEF7FF",
"q. c #BFF7FF",
"w. c #BBF8FF",
"e. c #BEF8FF",
"r. c #BFF8FF",
"t. c #C1F8FF",
"y. c #C2F8FF",
"u. c #C4F8FF",
"i. c #C6F9FF",
"p. c #C7F9FF",
"a. c #C9F9FF",
"s. c #CAFAFF",
"d. c #CCF8FF",
"f. c #CCF9FF",
"g. c #CDF9FF",
"h. c #CFF9FF",
"j. c #D0F9FF",
"k. c #D3FAFF",
"l. c #D5FAFF",
"z. c #D6FAFF",
"x. c #D8FBFF",
"c. c #D9FBFF",
"v. c #DBFBFF",
"b. c #DCFBFF",
"n. c #DFFBFF",
"m. c #E1FBFF",
"M. c #E2FBFF",
"N. c #E4FCFF",
"B. c #E5FCFF",
"V. c #E7FCFF",
"C. c #EAFCFF",
"Z. c #EAFDFF",
"A. c #EBFDFF",
"S. c #ECFDFF",
"D. c #EDFDFF",
"F. c #EEFDFF",
"G. c #EFFEFF",
"H. c #F0FDFF",
"J. c #F1FDFF",
"K. c #F2FDFF",
"L. c #F3FDFF",
"P. c #F0FEFF",
"I. c #F1FEFF",
"U. c #F3FEFF",
"Y. c #F6FDFF",
"T. c #F7FDFF",
"R. c #F4FEFF",
"E. c #F6FEFF",
"W. c #F7FEFF",
"Q. c #F8FEFF",
"!. c #FAFFFF",
"~. c #FBFFFF",
"^. c #FCFFFF",
"/. c #FDFFFF",
"(. c #FEFFFF",
"). c None",
/* pixels */
").).).).).).).).).).).).).).).).).).).).).).).).).).)./././././.(.(.(./.).).).).).).).).).).).).).).).).).).).).).).).).).).).).",
").).).).).).).).).).).).).).).).).).).).).).).).).).!.~.~.~.~.^.^.^.~.~.~.!.!.).).).).).).).).).).).).).).).).).).).).).).).).).",
").).).).).).).).).).).).).).).).).).).).).Q.W.W.W.W.Q.Q.Q.Q.Q.Q.Q.Q.Q.Q.Q.Q.Q.W.T.).).).).).).).).).).).).).).).).).).).).).).).",
").).).).).).).).).).).).).).).).).).).R.E.E.E.E.E.W.W.W.W.W.W.W.E.E.W.W.W.W.W.W.Y.).).).).).).).).).).).).).).).).).).).).).).).",
").).).).).).).).).).).).).).).).).I.J.K.K.L.L.U.).).).).).).).).).).).).).).).).).).).).).).).).).).).).).).).).).).).).).).).).",
").).).).).).).).).).).).).).).).G.P.H.J.J.J.).).).).).).).).).).).).).).).).).).).).).).).).).).).).).).).).).).).).).).).).).).",
").).).).).).).).).).).).).).A.S.S.D.F.).).).).).).).).).).).).).).).).).).).).).).).).).).).).).).).).).).).).).).).).).).).).).",
").).).).).).).).).).).).).C.Z.Z.Z.A.).).).).).).).).).).).).).).).).).).).).).).).).).).).).).).).).).).).).).).).).).).).).).).",
").).).).).).).).).).).).V.V.V.V.).).).).).).).).).).).).).).).).).).).).).).).).).).).).).).).).).).).).).).).).).).).).).).).).",
").).).).).).).).).).N.B.B.B.B.).).).).).).).).).).).).).).).).).).).).).).).).).).).).).).).).).).).).).).).).).).).).).).).).).",
").).).).).).).).).).m.m.m.M.).).).).).).).).).).).).).).).).).).).).).).).).).).).).).).).).).).).).).).).).).).).).).).).).).).",
").).).).).).).).).n.n.n.n.).).).).).).).).).).).).).).).).).).).).).).).).).).).).).).).).).).).).).).).).).).).).).).).).).).).",
").).).).).).).).v.v.b.b.).).).).).).).).).).).).).).).).).).).).).).).).).).).).).).).).).).).).).).).).).).).).).).).).).).).).",
").).).).).).).x.c.c.c.).).).).).).).).).).).).).).).).).).).).).).).).).).).).).).).).).).).).).).).).).).).).).).).).).).).).).",
").).).).).).z.z.l.l.).).).).).).).).).).).).).).).).).).).).).).).).).).).).).).).).).).).).).).).).).).).).).).).).).).).).).).",
").).).).).).k.k.k.).).).).).).).).).).).).).).).).).).).).).).).).).).).).).).).).).).).).).).).).).).).).).).).).).).).).).).).",
").).).).).h.j.j.).).).).).).).).).).).).).).).).).).).).).).).).).).).).).).).).).).).).).).).).).).).).).).).).).h.h.h.).).).).",
").).).).d.f.g.g.).).).).).).).).).).).).).).).).).).).).).).).      ).).).).).).).).).).).).).).).).).).).).).).).g.g.f.).).).).",
").).).).a.a.a.).).).).).).).).).).).).).).).).).  ).).).).).).      ).).).).).).  ).).).).).).).).).).).).).).).).s.a.a.).).).).",
").).).).p.p.p.).).).).).).).).).).).).).).).).      ).).).).        ).).).).        ).).).).).).).).).).).).).).).).p.p.i.).).).",
").).).u.u.u.).).).).).).).).).).).).).).).).).).                        ).        ).).).).).).).).).).).).).).).).).u.u.u.).).).",
").).).y.y.y.).).).).).).).).).).).).).).).).).).                                ).).).).).).).).).).).).).).).).).).y.y.t.t.).).",
").).e.e.r.q.).).).).).).).).).).).).).).).).).).                                ).).).).).).).).).).).).).).).).).).).e.0.0.).).",
").).w.w.9.).).).).).).).).).).).).).).).).).).).).                              ).).).).).).).).).).).).).).).).).).).8.9.9.).).",
").).6.6.7.).).).).).).).).).).).).).).).).).).).).                              ).).).).).).).).).).).).).).).).).).).).7.7.).).",
").).4.5.5.).).).).).).).).).).).).).).).).).).).).                              ).).).).).).).).).).).).).).).).).).).).5.5.5.).",
").).2.3.).).).).).).).).).).).).).).).).).).).).).).                          ).).).).).).).).).).).).).).).).).).).).).3.3.3.).",
").).<.1.).).).).).).).).).).).).).).).).).).).).).).                        ).).).).).).).).).).).).).).).).).).).).).).<.<.>.>.",
").).:.:.).).).).).).).).).).).).).).).).).).).).).).).).                  ).).).).).).).).).).).).).).).).).).).).).).).;.;.,.,.",
").-.*.*.).).).).).).).).).).).).).).).).).).).).).).).).                  ).).).).).).).).).).).).).).).).).).).).).).).&.&.=.=.",
").%.$.#.).).).).).).).).).).).).).).).).).).).).).).).                      ).).).).).).).).).).).).).).).).).).).).).).#.#.#.#.",
").@.@.@.).).).).).).).).).).).).).).).).).).).).).).                          ).).).).).).).).).).).).).).).).).).).).).@.@.@.@.",
").O.O.O.).).).).).).).).).).).).).).).).).).).).).              ).).).          ).).).).).).).).).).).).).).).).).).).).O.O.+.+.",
").{ X.X.).).).).).).).).).).).).).).).).).).).).).              ).).).).        ).).).).).).).).).).).).).).).).).).).)...X.o.o.",
").[  . .).).).).).).).).).).).).).).).).).).).).                    ).).        ).).).).).).).).).).).).).).).).).).).).] [  . .",
").).| } ).).).).).).).).).).).).).).).).).).).).                    ).).        ).).).).).).).).).).).).).).).).).).).).' ' ' } ",
").)._ ` ).).).).).).).).).).).).).).).).).).).).).                ).).).        ).).).).).).).).).).).).).).).).).).).)._ _ _ ).",
").).( ) ).).).).).).).).).).).).).).).).).).).).).                ).).).        ).).).).).).).).).).).).).).).).).).).).) ( / ).",
").).^ ~ ~ ).).).).).).).).).).).).).).).).).).).).).              ).          ).).).).).).).).).).).).).).).).).).).).).~ ^ ).).",
").).! ! Q ).).).).).).).).).).).).).).).).).).).).).                          ).).).).).).).).).).).).).).).).).).).).).Q ! ).).",
").).W W E ).).).).).).).).).).).).).).).).).).).).).).).                    ).).).).).).).).).).).).).).).).).).).).).E E W ).).",
").).).R T Y ).).).).).).).).).).).).).).).).).).).).).).                  ).).).).).).).).).).).).).).).).).).).).).).T R R ).).",
").).).U I I ).).).).).).).).).).).).).).).).).).).).).).        ).).).).).).).).).).).).).).).).).).).).).).).).).).I I U U ).).",
").).).).P P ).).).).).).).).).).).).).).).).).).).).).).      ).).).).).).).).).).).).).).).).).).).).).).).).).).).P P P ).).).",
").).).).L L K ).).).).).).).).).).).).).).).).).).).).).      ).).).).).).).).).).).).).).).).).).).).).).).).).).).L L L ).).).",
").).).).J J H G ).).).).).).).).).).).).).).).).).).).).    ).).).).).).).).).).).).).).).).).).).).).).).).).).).Z J J ).).).).",
").).).).).F F F ).).).).).).).).).).).).).).).).).).).).).).).).).).).).).).).).).).).).).).).).).).).).).).).).F F V C ).).).).",
").).).).).).D S A ).).).).).).).).).).).).).).).).).).).).).).).).).).).).).).).).).).).).).).).).).).).).).).).M N B ).).).).).",
").).).).).).m n n b ).).).).).).).).).).).).).).).).).).).).).).).).).).).).).).).).).).).).).).).).).).).).).m n m ).).).).).).",
").).).).).).).v v x ).).).).).).).).).).).).).).).).).).).).).).).).).).).).).).).).).).).).).).).).).).).).x c c c ).).).).).).",
").).).).).).).).l k j ).).).).).).).).).).).).).).).).).).).).).).).).).).).).).).).).).).).).).).).).).).z k k l ).).).).).).).",
").).).).).).).).h h f d ).).).).).).).).).).).).).).).).).).).).).).).).).).).).).).).).).).).).).).).).g f h h ).).).).).).).).",
").).).).).).).).).s a a a ).).).).).).).).).).).).).).).).).).).).).).).).).).).).).).).).).).).).).).u a a s ).).).).).).).).).",
").).).).).).).).).).p i i y ).).).).).).).).).).).).).).).).).).).).).).).).).).).).).).).).).).).).e r i i ).).).).).).).).).).",
").).).).).).).).).).).t w q q 0 ).).).).).).).).).).).).).).).).).).).).).).).).).).).).).).).).).0 q q w ).).).).).).).).).).).",
").).).).).).).).).).).).0 9 9 9 7 ).).).).).).).).).).).).).).).).).).).).).).).).).).).).).).).6 8 9 9 ).).).).).).).).).).).).",
").).).).).).).).).).).).).).5 4 4 3 3 ).).).).).).).).).).).).).).).).).).).).).).).).).).).3 3 4 < 4 ).).).).).).).).).).).).).",
").).).).).).).).).).).).).).).3 2 2 1 1 ).).).).).).).).).).).).).).).).).).).).).).).).> > 1 2 , , ).).).).).).).).).).).).).).",
").).).).).).).).).).).).).).).).).: ; ; ; - - ).).).).).).).).).).).).).).).).).).- - - ; ; ; : ).).).).).).).).).).).).).).).).",
").).).).).).).).).).).).).).).).).).- - = = = * * * ).).).).).).).).).).).).).$ & * = = - - = ).).).).).).).).).).).).).).).).).",
").).).).).).).).).).).).).).).).).).).).).% # @ @ @ + + + + + + + + + + + + + @ @ @ % & ).).).).).).).).).).).).).).).).).).).).",
").).).).).).).).).).).).).).).).).).).).).).).+ + + + O O O O O O O O O + + + + + + ).).).).).).).).).).).).).).).).).).).).).).",
").).).).).).).).).).).).).).).).).).).).).).).).).).).).o o o o o . X X ).).).).).).).).).).).).).).).).).).).).).).).).).).).).",
").).).).).).).).).).).).).).).).).).).).).).).).).).).).).).).).).).).).).).).).).).).).).).).).).).).).).).).).).).).).).).).)."
};
