/* XPM */
static char *result[] = {
/* columns rows colors chars-per-pixel */
"16 16 19 1 ",
"  c black",
". c #4CEBFF",
"X c #4EEBFF",
"o c #57ECFF",
"O c #61EDFF",
"+ c #6DEFFF",
"@ c #7AF0FF",
"# c #91F2FF",
"$ c #91F3FF",
"% c #9DF4FF",
"& c #A8F5FF",
"* c #B4F6FF",
"= c #CBF9FF",
"- c #D9FBFF",
"; c #EFFDFF",
": c #F8FEFF",
"> c #F9FEFF",
", c #FAFEFF",
"< c None",
/* pixels */
"<<<<<<:,,><<<<<<",
"<<<<;<<<<<<<<<<<",
"<<<<<<<<<<<<<<<<",
"<<-<<<<<<<<<<<<<",
"<=<<<<<<<<<<<<=<",
"<<<<<<    <<<<<<",
"*<<<<<    <<<<<*",
"&<<<<<<  <<<<<<&",
"%<<<<<    <<<<<%",
"$<<<<<    <<<<<#",
"<<<<<<< <<<<<<<<",
"<@<<<<<<<<<<<<@<",
"<<+<<<<<<<<<<<<<",
"<<<O<<<<<<<<<<<<",
"<<<<o<<<<<<o<<<<",
"<<<<<<X..X<<<<<<"
};
